<?xml version="1.0" encoding="UTF-8"?>
<!-- Generator: visioncortex VTracer 0.6.4 -->
<svg version="1.1" xmlns="http://www.w3.org/2000/svg" width="234" height="56">
<path d="M0 0 C77.22 0 154.44 0 234 0 C234 18.48 234 36.96 234 56 C156.78 56 79.56 56 0 56 C0 37.52 0 19.04 0 0 Z " fill="#CCD1D3" transform="translate(0,0)"/>
<path d="M0 0 C41.58 0 83.16 0 126 0 C126 1.32 126 2.64 126 4 C122.7 4.33 119.4 4.66 116 5 C116 6.98 116 8.96 116 11 C115.01 11.33 114.02 11.66 113 12 C113 20.25 113 28.5 113 37 C111.35 37 109.7 37 108 37 C108 40.3 108 43.6 108 47 C110.31 47 112.62 47 115 47 C115 49.97 115 52.94 115 56 C77.05 56 39.1 56 0 56 C0 37.52 0 19.04 0 0 Z " fill="#BCD1D4" transform="translate(0,0)"/>
<path d="M0 0 C7.71 -0.1 7.71 -0.1 10 0 C11 1 11 1 11.1 3.07 C11.07 5.38 11.03 7.69 11 10 C14.3 10 17.6 10 21 10 C21 6.7 21 3.4 21 0 C24.63 0 28.26 0 32 0 C32 2.31 32 4.62 32 7 C33.98 7 35.96 7 38 7 C38 12.28 38 17.56 38 23 C38.66 23 39.32 23 40 23 C40.37 22.13 40.37 22.13 40.75 21.25 C42.26 18.54 43.51 16.88 46 15 C49.75 14.75 49.75 14.75 53 15 C52.57 15.46 52.13 15.92 51.69 16.39 C51.13 17 50.57 17.62 50 18.25 C49.44 18.85 48.89 19.46 48.31 20.08 C46.62 22.16 46.62 22.16 47 26 C48.29 28.38 48.29 28.38 50 30.69 C53 34.93 53 34.93 53 36 C49.75 36.31 49.75 36.31 46 36 C43.56 33.63 43.56 33.63 42 31 C42 30.34 42 29.68 42 29 C40.68 29.33 39.36 29.66 38 30 C38 32.31 38 34.62 38 37 C36.02 37 34.04 37 32 37 C32 41.62 32 46.24 32 51 C14.18 51 -3.64 51 -22 51 C-22 48.36 -22 45.72 -22 43 C-25.3 43 -28.6 43 -32 43 C-32 41.02 -32 39.04 -32 37 C-35.96 37 -39.92 37 -44 37 C-44 27.76 -44 18.52 -44 9 C-41.13 8.92 -38.27 8.84 -35.31 8.75 C-34.42 8.71 -33.52 8.68 -32.6 8.64 C-28.63 8.58 -26.46 8.74 -22.94 10.75 C-21 13 -21 13 -20.51 15.14 C-20.67 17.09 -20.84 19.05 -21 21 C-17.25 20.67 -16.05 20.04 -13.25 17.38 C-11.33 15.67 -10.37 15.04 -7.79 14.75 C-2.78 15.14 0.41 16.3 4 20 C5.55 23.11 5.29 25.56 5 29 C3.7 31.02 2.36 33.02 1 35 C0.2 38.73 0.2 38.73 0 42 C3.3 42 6.6 42 10 42 C9.88 40.58 9.75 39.15 9.62 37.69 C9.52 36.49 9.52 36.49 9.41 35.26 C9.1 32.73 9.1 32.73 7 30 C6.73 27.59 6.73 27.59 6.75 24.94 C6.74 23.62 6.74 23.62 6.73 22.28 C7 20 7 20 9 18 C9.46 16.03 9.46 16.03 9.62 13.88 C9.81 11.96 9.81 11.96 10 10 C6.7 10 3.4 10 0 10 C0 6.7 0 3.4 0 0 Z " fill="#D1D5D8" transform="translate(169,5)"/>
<path d="M0 0 C4.88 2.91 8.76 6.84 11.31 11.94 C11.97 19.64 12.23 25.76 7.31 31.94 C1.44 38.19 -4.56 40.02 -13.05 40.37 C-14.52 40.42 -15.99 40.46 -17.46 40.5 C-21.9 40.69 -25.48 41.39 -29.69 42.94 C-32.56 43.06 -32.56 43.06 -34.69 42.94 C-34.57 42.35 -34.45 41.75 -34.33 41.14 C-33.38 35.9 -33.38 35.9 -35.5 31.19 C-36.22 30.45 -36.94 29.7 -37.69 28.94 C-40.37 24.25 -40.12 19.19 -39.69 13.94 C-38.81 10.88 -38.81 10.88 -37.69 8.94 C-37.03 8.61 -36.37 8.28 -35.69 7.94 C-35.41 7.32 -35.13 6.71 -34.85 6.08 C-28.85 -4.99 -9.96 -4.51 0 0 Z " fill="#0EB3B3" transform="translate(47.6875,7.0625)"/>
<path d="M0 0 C7.71 -0.1 7.71 -0.1 10 0 C11 1 11 1 11.1 3.07 C11.07 5.38 11.03 7.69 11 10 C14.3 10 17.6 10 21 10 C21 6.7 21 3.4 21 0 C24.63 0 28.26 0 32 0 C32 2.31 32 4.62 32 7 C33.98 7 35.96 7 38 7 C38 12.28 38 17.56 38 23 C38.66 23 39.32 23 40 23 C40.25 22.42 40.5 21.84 40.75 21.25 C42.26 18.54 43.51 16.88 46 15 C49.75 14.75 49.75 14.75 53 15 C52.57 15.46 52.13 15.92 51.69 16.39 C51.13 17 50.57 17.62 50 18.25 C49.44 18.85 48.89 19.46 48.31 20.08 C46.62 22.16 46.62 22.16 47 26 C48.29 28.38 48.29 28.38 50 30.69 C53 34.93 53 34.93 53 36 C49.75 36.31 49.75 36.31 46 36 C43.56 33.62 43.56 33.62 42 31 C42 30.34 42 29.68 42 29 C40.68 29.33 39.36 29.66 38 30 C38 32.31 38 34.62 38 37 C36.02 37 34.04 37 32 37 C32 38.65 32 40.3 32 42 C28.37 42 24.74 42 21 42 C21 40.35 21 38.7 21 37 C19.45 37.15 19.45 37.15 17.88 37.31 C12.8 36.9 11.54 35.54 8 32 C6.76 29.52 6.83 27.76 6.81 25 C6.8 24.11 6.78 23.23 6.77 22.31 C7 20 7 20 9 18 C9.46 16.03 9.46 16.03 9.62 13.88 C9.75 12.6 9.87 11.32 10 10 C6.7 10 3.4 10 0 10 C0 6.7 0 3.4 0 0 Z " fill="#C7CDCF" transform="translate(169,5)"/>
<path d="M0 0 C10.23 0 20.46 0 31 0 C31 1.32 31 2.64 31 4 C27.7 4.33 24.4 4.66 21 5 C21 6.98 21 8.96 21 11 C20.01 11.33 19.02 11.66 18 12 C18 20.25 18 28.5 18 37 C16.35 37 14.7 37 13 37 C12.67 38.65 12.34 40.3 12 42 C10.33 42.04 8.67 42.04 7 42 C6 41 6 41 5.94 38.44 C5.96 37.63 5.98 36.83 6 36 C4.02 36.49 4.02 36.49 2 37 C1.67 38.65 1.34 40.3 1 42 C-0.98 42 -2.96 42 -5 42 C-5 38.04 -5 34.08 -5 30 C-8.96 30 -12.92 30 -17 30 C-17 33.63 -17 37.26 -17 41 C-18.98 41 -20.96 41 -23 41 C-23 32.42 -23 23.84 -23 15 C-21.02 15 -19.04 15 -17 15 C-17 18.3 -17 21.6 -17 25 C-13.04 25 -9.08 25 -5 25 C-5 21.7 -5 18.4 -5 15 C-6.98 15 -8.96 15 -11 15 C-11 11.7 -11 8.4 -11 5 C-7.37 5 -3.74 5 0 5 C0 3.35 0 1.7 0 0 Z " fill="#A4D0CF" transform="translate(95,0)"/>
<path d="M0 0 C0.33 0 0.66 0 1 0 C1 16.83 1 33.66 1 51 C-9.89 51 -20.78 51 -32 51 C-32 46.38 -32 41.76 -32 37 C-30.02 37 -28.04 37 -26 37 C-26 34.69 -26 32.38 -26 30 C-24.68 29.67 -23.36 29.34 -22 29 C-18 33.75 -18 33.75 -18 36 C-15.03 35.51 -15.03 35.51 -12 35 C-14.31 31.7 -16.62 28.4 -19 25 C-17 21 -17 21 -14 19 C-13.01 19 -12.02 19 -11 19 C-10.67 16.03 -10.34 13.06 -10 10 C-6.7 10 -3.4 10 0 10 C0 6.7 0 3.4 0 0 Z " fill="#C9CED2" transform="translate(233,5)"/>
<path d="M0 0 C2.64 0 5.28 0 8 0 C8.33 1.32 8.66 2.64 9 4 C9.99 3.67 10.98 3.34 12 3 C12 11.91 12 20.82 12 30 C15.96 30 19.92 30 24 30 C24 31.98 24 33.96 24 36 C27.3 36 30.6 36 34 36 C34 38.64 34 41.28 34 44 C23.44 44 12.88 44 2 44 C2 41.03 2 38.06 2 35 C-0.31 35 -2.62 35 -5 35 C-5 31.7 -5 28.4 -5 25 C-3.35 25 -1.7 25 0 25 C0 16.75 0 8.5 0 0 Z " fill="#C8CCCE" transform="translate(113,12)"/>
<path d="M0 0 C8.33 0.01 14.69 1.31 20.9 7.26 C25.89 12.85 26.36 16.67 26.27 24.17 C25.7 30.98 22.04 34.79 17.07 39.18 C10.97 42.89 4.13 42.8 -2.77 43 C-7.21 43.19 -10.79 43.89 -15 45.44 C-17.88 45.56 -17.88 45.56 -20 45.44 C-19.92 44.82 -19.83 44.21 -19.75 43.57 C-19.64 42.77 -19.54 41.96 -19.44 41.12 C-19.33 40.32 -19.23 39.52 -19.12 38.7 C-18.85 36.27 -18.85 36.27 -20 33.44 C-19.34 33.44 -18.68 33.44 -18 33.44 C-17.67 34.1 -17.34 34.76 -17 35.44 C-15.68 34.45 -14.36 33.46 -13 32.44 C-13 33.1 -13 33.76 -13 34.44 C-9.81 34.36 -6.62 34.24 -3.44 34.12 C-2.09 34.09 -2.09 34.09 -0.72 34.06 C4.86 33.83 9.16 33.33 14 30.44 C15.88 27.79 15.88 27.79 16.94 24.75 C17.34 23.76 17.74 22.76 18.15 21.74 C18.43 20.98 18.71 20.22 19 19.44 C19.66 19.44 20.32 19.44 21 19.44 C21.33 18.12 21.66 16.8 22 15.44 C18.88 16.75 18.88 16.75 17 19.44 C16.34 19.44 15.68 19.44 15 19.44 C15.51 15.72 16.12 12.7 18 9.44 C16.02 9.44 14.04 9.44 12 9.44 C11.93 10.01 11.85 10.57 11.77 11.16 C10.73 17.27 8.89 21.48 4 25.44 C1.29 26.93 -0.95 27.64 -4 28.44 C-4.99 28.11 -5.98 27.78 -7 27.44 C-5.71 26.93 -4.42 26.43 -3.12 25.94 C-2.41 25.66 -1.69 25.38 -0.95 25.09 C1 24.44 1 24.44 3 24.44 C3 23.78 3 23.12 3 22.44 C3.66 22.44 4.32 22.44 5 22.44 C7.02 18.63 8.34 14.66 9.71 10.58 C11 8.44 11 8.44 13.64 7.64 C14.42 7.57 15.2 7.51 16 7.44 C16 6.78 16 6.12 16 5.44 C10.31 3.54 5.04 3.03 -0.94 2.81 C-1.81 2.77 -2.69 2.74 -3.59 2.7 C-5.72 2.6 -7.86 2.52 -10 2.44 C-7.07 -0.5 -3.93 0.01 0 0 Z " fill="#12ADAD" transform="translate(33,4.5625)"/>
<path d="M0 0 C2.87 -0.08 5.73 -0.16 8.69 -0.25 C9.58 -0.29 10.48 -0.32 11.4 -0.36 C15.4 -0.42 17.54 -0.27 21.06 1.8 C23 4 23 4 23.31 7.5 C23.21 8.66 23.11 9.81 23 11 C23 12.32 23 13.64 23 15 C23.33 15.33 23.66 15.66 24 16 C24.66 21.76 24.66 21.76 24 24 C19.11 28.5 14.88 28.51 8.62 28.25 C4.36 28.13 4.36 28.13 0 28 C0 18.76 0 9.52 0 0 Z " fill="#565B60" transform="translate(125,14)"/>
<path d="M0 0 C17.82 0 35.64 0 54 0 C55.03 5.15 54.77 7.94 54 13 C53.67 13 53.34 13 53 13 C53 10.36 53 7.72 53 5 C49.7 5 46.4 5 43 5 C43 8.3 43 11.6 43 15 C44.98 15 46.96 15 49 15 C49 18.3 49 21.6 49 25 C45.04 25 41.08 25 37 25 C37 21.37 37 17.74 37 14 C35.02 14 33.04 14 31 14 C31 11.03 31 8.06 31 5 C27.7 5 24.4 5 21 5 C21 8.3 21 11.6 21 15 C16.96 15.47 15.46 15.36 12.19 12.81 C10.01 10.02 9.3 8.48 9 5 C6.03 4.67 3.06 4.34 0 4 C0 2.68 0 1.36 0 0 Z " fill="#C7D5D7" transform="translate(41,0)"/>
<path d="M0 0 C3.3 0 6.6 0 10 0 C10 2.97 10 5.94 10 9 C11.98 9 13.96 9 16 9 C16 9.33 16 9.66 16 10 C14.02 10 12.04 10 10 10 C10 18.58 10 27.16 10 36 C9.67 34.68 9.34 33.36 9 32 C6.03 32 3.06 32 0 32 C0 35.3 0 38.6 0 42 C-3.3 42 -6.6 42 -10 42 C-10.88 39.94 -10.88 39.94 -11 37 C-9.64 35.03 -8.12 33.37 -6.45 31.65 C-3.52 28.31 -3.87 24.79 -3.88 20.56 C-3.87 19.43 -3.87 18.3 -3.87 17.13 C-3.98 14.55 -4.24 12.45 -5 10 C-3.35 10 -1.7 10 0 10 C0 6.7 0 3.4 0 0 Z " fill="#BCC3C6" transform="translate(62,5)"/>
<path d="M0 0 C7.26 0 14.52 0 22 0 C21.67 4.95 21.34 9.9 21 15 C17.7 15 14.4 15 11 15 C11 17.97 11 20.94 11 24 C9.68 24.33 8.36 24.66 7 25 C7.66 23.68 8.32 22.36 9 21 C6.26 20.41 6.26 20.41 3 21 C1.19 22.69 -0.23 24.48 -1.7 26.47 C-2.13 26.97 -2.56 27.48 -3 28 C-3.66 28 -4.32 28 -5 28 C-5 22.72 -5 17.44 -5 12 C-6.98 12 -8.96 12 -11 12 C-11 9.69 -11 7.38 -11 5 C-7.37 5 -3.74 5 0 5 C0 8.3 0 11.6 0 15 C3.3 15 6.6 15 10 15 C10 11.37 10 7.74 10 4 C6.7 4 3.4 4 0 4 C0 2.68 0 1.36 0 0 Z " fill="#D3D8DB" transform="translate(212,0)"/>
<path d="M0 0 C3.7 2.03 5.65 3.48 8 7 C8.67 13.9 8.67 13.9 6.25 17.88 C2.95 20.99 1.16 21.85 -3.38 22.44 C-8.19 21.86 -9.61 20.39 -13 17 C-14.88 13.23 -14.78 9.08 -14 5 C-10.49 0.29 -5.67 -0.93 0 0 Z " fill="#565B60" transform="translate(190,20)"/>
<path d="M0 0 C2.82 1.82 4.5 3.01 6 6 C6.4 10.19 6.24 12.53 4.31 16.31 C0.94 20.23 -1.42 20.77 -6.44 21.5 C-10.54 20.92 -12.19 20.04 -14.88 16.98 C-17.09 13.06 -17.14 9.29 -16 5 C-12.09 -1.21 -6.7 -2.22 0 0 Z " fill="#50565A" transform="translate(168,21)"/>
<path d="M0 0 C1.98 0 3.96 0 6 0 C6 9.24 6 18.48 6 28 C4.02 28 2.04 28 0 28 C0 24.04 0 20.08 0 16 C-3.96 16 -7.92 16 -12 16 C-12 19.63 -12 23.26 -12 27 C-13.98 27 -15.96 27 -18 27 C-18 18.42 -18 9.84 -18 1 C-16.02 1 -14.04 1 -12 1 C-12 4.3 -12 7.6 -12 11 C-8.04 11 -4.08 11 0 11 C0 7.37 0 3.74 0 0 Z " fill="#1DA9A9" transform="translate(90,14)"/>
<path d="M0 0 C1.98 0 3.96 0 6 0 C6 4.95 6 9.9 6 15 C6.66 15 7.32 15 8 15 C8.25 14.42 8.5 13.84 8.75 13.25 C10.26 10.54 11.51 8.88 14 7 C17.75 6.75 17.75 6.75 21 7 C20.35 7.69 20.35 7.69 19.69 8.39 C19.13 9 18.57 9.62 18 10.25 C17.44 10.85 16.89 11.46 16.31 12.08 C14.62 14.16 14.62 14.16 15 18 C16.29 20.38 16.29 20.38 18 22.69 C21 26.93 21 26.93 21 28 C17.75 28.31 17.75 28.31 14 28 C11.56 25.62 11.56 25.62 10 23 C10 22.34 10 21.68 10 21 C8.68 21.33 7.36 21.66 6 22 C6 24.31 6 26.62 6 29 C4.02 29 2.04 29 0 29 C0 19.43 0 9.86 0 0 Z " fill="#4D5155" transform="translate(201,13)"/>
<path d="M0 0 C1.98 0 3.96 0 6 0 C5.01 3.3 4.02 6.6 3 10 C3.66 10 4.32 10 5 10 C5.66 8.68 6.32 7.36 7 6 C7.99 6 8.98 6 10 6 C9.62 7.94 9.62 7.94 9 10 C8.34 10.33 7.68 10.66 7 11 C6.34 12.6 5.75 14.23 5.19 15.88 C3.88 19.29 3.33 20.74 0.44 23.06 C-2.96 24.37 -5.61 25.12 -9.23 25.1 C-10.03 25.09 -10.84 25.09 -11.66 25.09 C-12.5 25.08 -13.33 25.07 -14.19 25.06 C-15.03 25.06 -15.88 25.05 -16.75 25.05 C-18.83 25.04 -20.92 25.02 -23 25 C-23 24.01 -23 23.02 -23 22 C-19.32 19.78 -15.97 17.93 -11.88 16.62 C-7.74 15.12 -5.16 12.83 -3 9 C-1.8 6.05 -0.84 3.07 0 0 Z " fill="#37AAAB" transform="translate(45,14)"/>
<path d="M0 0 C2.34 2.26 4.19 4.28 6 7 C5.97 9.74 5.45 12.28 5 15 C7.97 15.5 7.97 15.5 11 16 C11 17.98 11 19.96 11 22 C4.4 22 -2.2 22 -9 22 C-9 15.4 -9 8.8 -9 2 C-6.03 2 -3.06 2 0 2 C0 1.34 0 0.68 0 0 Z " fill="#D0DFE2" transform="translate(9,34)"/>
<path d="M0 0 C10.23 0 20.46 0 31 0 C31 1.32 31 2.64 31 4 C27.7 4.33 24.4 4.66 21 5 C21 6.98 21 8.96 21 11 C20.01 11.33 19.02 11.66 18 12 C17.67 12.99 17.34 13.98 17 15 C13.61 16.79 10.81 17.32 7 17 C6 16 6 16 5.81 13.56 C6 11 6 11 8 9 C8.64 6.93 8.64 6.93 9 5 C6.36 5 3.72 5 1 5 C0.67 3.35 0.34 1.7 0 0 Z " fill="#CAD1D3" transform="translate(95,0)"/>
<path d="M0 0 C0 0.66 0 1.32 0 2 C1.32 2.33 2.64 2.66 4 3 C4 5.64 4 8.28 4 11 C-6.23 11 -16.46 11 -27 11 C-27 9.02 -27 7.04 -27 5 C-27.66 4.67 -28.32 4.34 -29 4 C-24.04 2.06 -19.62 1.62 -14.38 1.44 C-9.55 1.24 -4.73 0 0 0 Z " fill="#B7C0C2" transform="translate(47,45)"/>
<path d="M0 0 C8.33 0.01 14.69 1.31 20.9 7.26 C25.88 12.85 26.33 16.66 26.3 24.15 C25.89 28.59 24.63 30.9 22 34.44 C20.86 31.03 21.13 30.43 22.44 27.25 C22.72 26.53 23.01 25.82 23.31 25.08 C23.54 24.54 23.76 24 24 23.44 C22.02 24.43 22.02 24.43 20 25.44 C20 24.12 20 22.8 20 21.44 C19.34 22.1 18.68 22.76 18 23.44 C18.33 22.12 18.66 20.8 19 19.44 C19.66 19.44 20.32 19.44 21 19.44 C21.33 18.12 21.66 16.8 22 15.44 C18.88 16.75 18.88 16.75 17 19.44 C16.34 19.44 15.68 19.44 15 19.44 C15.51 15.72 16.12 12.7 18 9.44 C16.02 9.44 14.04 9.44 12 9.44 C11.93 10.01 11.85 10.57 11.77 11.16 C10.73 17.27 8.89 21.48 4 25.44 C1.29 26.93 -0.95 27.64 -4 28.44 C-4.99 28.11 -5.98 27.78 -7 27.44 C-5.71 26.93 -4.42 26.43 -3.12 25.94 C-2.41 25.66 -1.69 25.38 -0.95 25.09 C1 24.44 1 24.44 3 24.44 C3 23.78 3 23.12 3 22.44 C3.66 22.44 4.32 22.44 5 22.44 C7.02 18.63 8.34 14.66 9.71 10.58 C11 8.44 11 8.44 13.64 7.64 C14.42 7.57 15.2 7.51 16 7.44 C16 6.78 16 6.12 16 5.44 C10.31 3.54 5.04 3.03 -0.94 2.81 C-1.81 2.77 -2.69 2.74 -3.59 2.7 C-5.72 2.6 -7.86 2.52 -10 2.44 C-7.07 -0.5 -3.93 0.01 0 0 Z " fill="#2BA8A8" transform="translate(33,4.5625)"/>
<path d="M0 0 C10.56 0 21.12 0 32 0 C32 1.32 32 2.64 32 4 C28.37 4 24.74 4 21 4 C21 7.63 21 11.26 21 15 C16.96 15.47 15.46 15.36 12.19 12.81 C10.01 10.02 9.3 8.48 9 5 C6.03 4.67 3.06 4.34 0 4 C0 2.68 0 1.36 0 0 Z " fill="#D7E4E7" transform="translate(41,0)"/>
<path d="M0 0 C3.3 0 6.6 0 10 0 C10.2 6.05 10.2 6.05 10 8 C9.34 8.66 8.68 9.32 8 10 C7.68 12.34 7.68 12.34 7.75 14.94 C7.74 15.81 7.74 16.69 7.73 17.59 C7.84 20.26 7.84 20.26 10 23 C10.26 26.02 10.09 28.96 10 32 C6.7 32 3.4 32 0 32 C-0.47 26.1 0.79 23.81 4 19 C4.67 15.46 4.67 15.46 4 12 C3.34 11.18 2.68 10.35 2 9.5 C-0.62 6.22 -0.32 4.08 0 0 Z " fill="#DBE0E2" transform="translate(169,15)"/>
<path d="M0 0 C2.64 0 5.28 0 8 0 C8.55 15.74 8.55 15.74 5 23 C5.66 23 6.32 23 7 23 C7 24.98 7 26.96 7 29 C3.99 29.93 3.13 30.04 0 29 C0 19.43 0 9.86 0 0 Z " fill="#E7C55C" transform="translate(113,12)"/>
<path d="M0 0 C2.31 0 4.62 0 7 0 C7.03 3.48 7.05 6.96 7.06 10.44 C7.07 11.43 7.08 12.42 7.09 13.45 C7.09 14.39 7.09 15.34 7.1 16.31 C7.1 17.18 7.11 18.06 7.11 18.96 C7 21 7 21 6 22 C3.5 22.12 3.5 22.12 1 22 C0 21 0 21 -0.11 18.96 C-0.11 18.08 -0.1 17.21 -0.1 16.31 C-0.09 15.36 -0.09 14.42 -0.09 13.45 C-0.08 12.45 -0.07 11.46 -0.06 10.44 C-0.06 9.44 -0.05 8.44 -0.05 7.42 C-0.04 4.94 -0.02 2.47 0 0 Z " fill="#2BADAB" transform="translate(101,20)"/>
<path d="M0 0 C0.33 0.99 0.66 1.98 1 3 C1.99 2.67 2.98 2.34 4 2 C4.03 5.77 4.05 9.54 4.06 13.31 C4.07 14.38 4.08 15.46 4.09 16.56 C4.09 17.59 4.09 18.62 4.1 19.68 C4.1 20.62 4.11 21.57 4.11 22.55 C4 25 4 25 3 28 C-0.01 30.04 -2.42 30.2 -6 30 C-6.33 29.34 -6.66 28.68 -7 28 C-5.35 28 -3.7 28 -2 28 C-1.67 26.02 -1.34 24.04 -1 22 C-1.66 22 -2.32 22 -3 22 C-2 18 -2 18 -1.5 16.31 C-0.81 13.14 -0.65 9.99 -0.44 6.75 C-0.35 5.49 -0.27 4.22 -0.18 2.92 C-0.12 1.96 -0.06 0.99 0 0 Z " fill="#D5D8D7" transform="translate(121,13)"/>
<path d="M0 0 C1.98 0 3.96 0 6 0 C4.12 6.49 1.38 14.59 -4 19 C-7.9 20.35 -10.85 21 -15 21 C-13.83 17.49 -13.22 17.29 -10.12 15.56 C-3.59 11.61 -2.14 7.12 0 0 Z " fill="#BEE3E3" transform="translate(45,14)"/>
<path d="M0 0 C3.3 0 6.6 0 10 0 C10 2.31 10 4.62 10 7 C9.34 7 8.68 7 8 7 C7.67 7.99 7.34 8.98 7 10 C3.61 11.79 0.81 12.32 -3 12 C-4 11 -4 11 -4.06 8.44 C-4.04 7.63 -4.02 6.83 -4 6 C-2.68 5.34 -1.36 4.68 0 4 C0 2.68 0 1.36 0 0 Z " fill="#B4BCBB" transform="translate(105,5)"/>
<path d="M0 0 C0 1.32 0 2.64 0 4 C3.3 4 6.6 4 10 4 C10 6.97 10 9.94 10 13 C6.37 13 2.74 13 -1 13 C-1 10.36 -1 7.72 -1 5 C-3.97 5 -6.94 5 -10 5 C-10 4.67 -10 4.34 -10 4 C-8.35 4 -6.7 4 -5 4 C-4.67 3.01 -4.34 2.02 -4 1 C-2 0 -2 0 0 0 Z " fill="#DBE0E3" transform="translate(52,43)"/>
<path d="M0 0 C3.3 0 6.6 0 10 0 C10 3.3 10 6.6 10 10 C6.7 10 3.4 10 0 10 C0 8.35 0 6.7 0 5 C-2.31 5 -4.62 5 -7 5 C-7 4.67 -7 4.34 -7 4 C-5.02 3.67 -3.04 3.34 -1 3 C-0.67 2.01 -0.34 1.02 0 0 Z " fill="#B5BABD" transform="translate(223,37)"/>
<path d="M0 0 C1.98 0 3.96 0 6 0 C6 5.94 6 11.88 6 18 C4.35 18.33 2.7 18.66 1 19 C0.16 14.65 -0.11 10.56 -0.06 6.12 C-0.05 4.97 -0.04 3.82 -0.04 2.63 C-0.02 1.76 -0.01 0.9 0 0 Z " fill="#EFBB2B" transform="translate(114,13)"/>
<path d="M0 0 C3.3 0 6.6 0 10 0 C10 3.3 10 6.6 10 10 C7.72 10.2 5.44 10.39 3.16 10.59 C0.8 10.83 0.8 10.83 -1 13 C-1.66 12.01 -2.32 11.02 -3 10 C-2.01 10 -1.02 10 0 10 C0 6.7 0 3.4 0 0 Z " fill="#B6BBBE" transform="translate(148,5)"/>
<path d="M0 0 C3.3 0 6.6 0 10 0 C10 2.31 10 4.62 10 7 C11.98 7 13.96 7 16 7 C16 7.33 16 7.66 16 8 C14.02 8 12.04 8 10 8 C10 8.66 10 9.32 10 10 C6.7 10 3.4 10 0 10 C0 6.7 0 3.4 0 0 Z " fill="#B2B8BA" transform="translate(191,5)"/>
<path d="M0 0 C1.32 0 2.64 0 4 0 C4 1.32 4 2.64 4 4 C6.31 4 8.62 4 11 4 C11 6.97 11 9.94 11 13 C7.7 13 4.4 13 1 13 C1.03 10.79 1.07 8.57 1.1 6.36 C1 4.09 0.63 2.17 0 0 Z " fill="#A8ADB0" transform="translate(104,43)"/>
<path d="M0 0 C3.63 0 7.26 0 11 0 C11 2.64 11 5.28 11 8 C12.65 8 14.3 8 16 8 C16 8.33 16 8.66 16 9 C10.72 9 5.44 9 0 9 C0 6.03 0 3.06 0 0 Z " fill="#BAC1C4" transform="translate(126,5)"/>
<path d="M0 0 C3.3 0 6.6 0 10 0 C10 3.3 10 6.6 10 10 C6.37 10 2.74 10 -1 10 C-0.67 6.7 -0.34 3.4 0 0 Z " fill="#DFE3E7" transform="translate(223,26)"/>
<path d="M0 0 C2.56 0.31 2.56 0.31 4.38 1.44 C6.11 4.18 5.96 6.13 5.56 9.31 C4.38 11.19 4.38 11.19 2.56 12.31 C0 12.69 0 12.69 -2.44 12.31 C-4.89 8.64 -4.75 6.65 -4.44 2.31 C-2.44 0.31 -2.44 0.31 0 0 Z " fill="#C7CBCE" transform="translate(162.4375,24.6875)"/>
<path d="M0 0 C3.3 0 6.6 0 10 0 C10 3.3 10 6.6 10 10 C6.7 10 3.4 10 0 10 C0 6.7 0 3.4 0 0 Z " fill="#B4B9BD" transform="translate(223,15)"/>
<path d="M0 0 C3.3 0 6.6 0 10 0 C10 3.3 10 6.6 10 10 C6.7 10 3.4 10 0 10 C0 6.7 0 3.4 0 0 Z " fill="#E0E5E8" transform="translate(223,5)"/>
<path d="M0 0 C3.3 0 6.6 0 10 0 C10 3.3 10 6.6 10 10 C6.7 10 3.4 10 0 10 C0 6.7 0 3.4 0 0 Z " fill="#B7BCBF" transform="translate(212,5)"/>
<path d="M0 0 C3.3 0 6.6 0 10 0 C10 3.3 10 6.6 10 10 C6.7 10 3.4 10 0 10 C0 6.7 0 3.4 0 0 Z " fill="#DFE3E6" transform="translate(180,5)"/>
<path d="M0 0 C3.3 0 6.6 0 10 0 C10 3.3 10 6.6 10 10 C6.7 10 3.4 10 0 10 C0 6.7 0 3.4 0 0 Z " fill="#B7BCBF" transform="translate(169,5)"/>
<path d="M0 0 C3.3 0 6.6 0 10 0 C10 3.3 10 6.6 10 10 C6.7 10 3.4 10 0 10 C0 6.7 0 3.4 0 0 Z " fill="#DDE3E5" transform="translate(159,5)"/>
<path d="M0 0 C3.63 0 7.26 0 11 0 C11 2.97 11 5.94 11 9 C7.37 9 3.74 9 0 9 C0 6.03 0 3.06 0 0 Z " fill="#DFE4E6" transform="translate(201,47)"/>
<path d="M0 0 C2.97 0 5.94 0 9 0 C9 3.63 9 7.26 9 11 C6.03 11 3.06 11 0 11 C0 7.37 0 3.74 0 0 Z " fill="#DCE3E6" transform="translate(62,15)"/>
<path d="M0 0 C2.8 4.2 2.14 7 2 12 C-1.3 12 -4.6 12 -8 12 C-8.38 8.81 -8.38 8.81 -8 5 C-5.91 2.4 -3.49 0 0 0 Z " fill="#DDE2E4" transform="translate(177,35)"/>
<path d="M0 0 C0 3.63 0 7.26 0 11 C-3.63 11 -7.26 11 -11 11 C-11.5 8.31 -11.5 8.31 -11 5 C-7.71 2.03 -4.47 0 0 0 Z " fill="#D9DEE1" transform="translate(201,36)"/>
<path d="M0 0 C2.97 0 5.94 0 9 0 C9.33 3.3 9.66 6.6 10 10 C6.7 10 3.4 10 0 10 C0 6.7 0 3.4 0 0 Z " fill="#DEE4E7" transform="translate(62,37)"/>
<path d="M0 0 C1.24 0.02 1.24 0.02 2.5 0.04 C3.32 0.04 4.15 0.05 5 0.06 C5.64 0.07 6.28 0.09 6.93 0.1 C7.37 3.14 7.5 5.26 5.74 7.87 C2.85 10.97 2.85 10.97 0.93 12.1 C-1.27 11.76 -1.27 11.76 -3.07 11.1 C-3.09 9.45 -3.11 7.81 -3.13 6.16 C-3.14 5.24 -3.15 4.33 -3.16 3.38 C-3.04 0.44 -2.94 0.14 0 0 Z " fill="#DDE1E3" transform="translate(151.06640625,14.90234375)"/>
<path d="M0 0 C3.3 0 6.6 0 10 0 C10 2.97 10 5.94 10 9 C6.7 9.33 3.4 9.66 0 10 C0 6.7 0 3.4 0 0 Z " fill="#B1BEC0" transform="translate(84,5)"/>
<path d="M0 0 C3.3 0 6.6 0 10 0 C10 3.3 10 6.6 10 10 C6.7 9.67 3.4 9.34 0 9 C0 6.03 0 3.06 0 0 Z " fill="#DBE5E8" transform="translate(73,5)"/>
<path d="M0 0 C2.74 4.57 1.75 7.87 1 13 C-2.63 13 -6.26 13 -10 13 C-10 11.35 -10 9.7 -10 8 C-8.02 8 -6.04 8 -4 8 C-4 5.69 -4 3.38 -4 1 C-2 0 -2 0 0 0 Z " fill="#B8BDC0" transform="translate(211,34)"/>
<path d="M0 0 C3.3 0 6.6 0 10 0 C10 2.97 10 5.94 10 9 C6.7 9 3.4 9 0 9 C0 6.03 0 3.06 0 0 Z " fill="#B8BEC0" transform="translate(148,47)"/>
<path d="M0 0 C3.3 0 6.6 0 10 0 C10 3.3 10 6.6 10 10 C6.67 9.33 3.33 8.67 0 8 C0 5.36 0 2.72 0 0 Z " fill="#DDE3E4" transform="translate(137,5)"/>
<path d="M0 0 C3.63 0 7.26 0 11 0 C11 2.64 11 5.28 11 8 C7.37 8 3.74 8 0 8 C0 5.36 0 2.72 0 0 Z " fill="#D5E4E6" transform="translate(30,48)"/>
<path d="M0 0 C1.98 0 3.96 0 6 0 C6 9.24 6 18.48 6 28 C4.02 28 2.04 28 0 28 C0.33 25.36 0.66 22.72 1 20 C1.33 20 1.66 20 2 20 C2.33 21.65 2.66 23.3 3 25 C3.33 17.41 3.66 9.82 4 2 C3.01 2 2.02 2 1 2 C1 4.97 1 7.94 1 11 C0.67 11 0.34 11 0 11 C0 7.37 0 3.74 0 0 Z " fill="#31AEAD" transform="translate(90,14)"/>
<path d="M0 0 C0.36 1.46 0.71 2.92 1.06 4.38 C1.26 5.19 1.46 6 1.66 6.84 C2 9 2 9 1 11 C-1.97 11 -4.94 11 -8 11 C-8 7.7 -8 4.4 -8 1 C-1.12 0 -1.12 0 0 0 Z " fill="#B0BFC3" transform="translate(8,25)"/>
<path d="M0 0 C2.64 0 5.28 0 8 0 C8.03 1.65 8.05 3.29 8.06 4.94 C8.07 5.85 8.09 6.77 8.1 7.71 C8 10 8 10 7 11 C4.67 11.04 2.33 11.04 0 11 C0 7.37 0 3.74 0 0 Z " fill="#D7E2E4" transform="translate(0,15)"/>
<path d="M0 0 C3.63 0 7.26 0 11 0 C11 1.32 11 2.64 11 4 C11.96 3.98 11.96 3.98 12.93 3.96 C13.76 3.96 14.59 3.95 15.44 3.94 C16.26 3.93 17.08 3.91 17.93 3.9 C20 4 20 4 21 5 C21.04 6.67 21.04 8.33 21 10 C20.49 9.72 19.98 9.45 19.45 9.16 C13.02 5.95 7.14 5.24 0 5 C0 3.35 0 1.7 0 0 Z " fill="#9CC8C9" transform="translate(30,0)"/>
<path d="M0 0 C3.3 0 6.6 0 10 0 C11.35 2.71 11.07 5.01 11 8 C7.37 8 3.74 8 0 8 C0 5.36 0 2.72 0 0 Z " fill="#DDE2E4" transform="translate(158,48)"/>
<path d="M0 0 C3.5 0.12 3.5 0.12 4.5 1.12 C4.74 7.65 4.74 7.65 3.5 10.12 C1.17 10.17 -1.17 10.17 -3.5 10.12 C-4.5 9.12 -4.5 9.12 -4.63 7.31 C-4.63 6.59 -4.63 5.87 -4.62 5.12 C-4.63 4.4 -4.63 3.68 -4.63 2.94 C-4.39 -0.42 -3.47 0.12 0 0 Z " fill="#D7DCDF" transform="translate(186.5,25.875)"/>
<path d="M0 0 C3.3 0 6.6 0 10 0 C10 2.97 10 5.94 10 9 C8.02 9.99 8.02 9.99 6 11 C5.67 10.01 5.34 9.02 5 8 C2.03 7.5 2.03 7.5 -1 7 C-0.67 4.69 -0.34 2.38 0 0 Z " fill="#E1E5E0" transform="translate(116,5)"/>
<path d="M0 0 C0.99 0 1.98 0 3 0 C3 7.92 3 15.84 3 24 C1.67 24 0.33 24 -1 24 C-1.33 19.05 -1.66 14.1 -2 9 C-1.34 9 -0.68 9 0 9 C0 6.03 0 3.06 0 0 Z " fill="#15B5B3" transform="translate(91,16)"/>
<path d="M0 0 C3.3 0 6.6 0 10 0 C10 3.3 10 6.6 10 10 C8.68 10 7.36 10 6 10 C6 9.01 6 8.02 6 7 C4.02 7 2.04 7 0 7 C0 4.69 0 2.38 0 0 Z " fill="#DDE2E5" transform="translate(201,5)"/>
<path d="M0 0 C1.65 0.33 3.3 0.66 5 1 C5 4.3 5 7.6 5 11 C1.7 11 -1.6 11 -5 11 C-5 9.02 -5 7.04 -5 5 C-3.35 5 -1.7 5 0 5 C0 3.35 0 1.7 0 0 Z " fill="#A7BBBE" transform="translate(78,36)"/>
<path d="M0 0 C0 1.98 0 3.96 0 6 C1.32 6 2.64 6 4 6 C4 7.65 4 9.3 4 11 C0.7 11 -2.6 11 -6 11 C-6 7.7 -6 4.4 -6 1 C-1.12 0 -1.12 0 0 0 Z " fill="#D5E3E6" transform="translate(90,36)"/>
<path d="M0 0 C3.3 0 6.6 0 10 0 C10 2.64 10 5.28 10 8 C6.7 8 3.4 8 0 8 C0 5.36 0 2.72 0 0 Z " fill="#DBE0E3" transform="translate(223,48)"/>
<path d="M0 0 C3.3 0 6.6 0 10 0 C10 2.64 10 5.28 10 8 C6.7 8 3.4 8 0 8 C0 5.36 0 2.72 0 0 Z " fill="#B2B7BA" transform="translate(212,48)"/>
<path d="M0 0 C3.3 0 6.6 0 10 0 C10 2.64 10 5.28 10 8 C6.7 8 3.4 8 0 8 C0 5.36 0 2.72 0 0 Z " fill="#DCE1E4" transform="translate(180,48)"/>
<path d="M0 0 C3.3 0 6.6 0 10 0 C10 2.64 10 5.28 10 8 C6.7 8 3.4 8 0 8 C0 5.36 0 2.72 0 0 Z " fill="#AEB6B9" transform="translate(169,48)"/>
<path d="M0 0 C3.3 0 6.6 0 10 0 C10 2.64 10 5.28 10 8 C6.7 8 3.4 8 0 8 C0 5.36 0 2.72 0 0 Z " fill="#E0E5E8" transform="translate(137,48)"/>
<path d="M0 0 C3.3 0 6.6 0 10 0 C10 2.64 10 5.28 10 8 C6.7 8 3.4 8 0 8 C0 5.36 0 2.72 0 0 Z " fill="#DCE1E4" transform="translate(116,48)"/>
<path d="M0 0 C3.3 0 6.6 0 10 0 C10 2.64 10 5.28 10 8 C6.7 8 3.4 8 0 8 C0 5.36 0 2.72 0 0 Z " fill="#DBE1E4" transform="translate(94,48)"/>
<path d="M0 0 C3.3 0 6.6 0 10 0 C10 2.64 10 5.28 10 8 C6.7 8 3.4 8 0 8 C0 5.36 0 2.72 0 0 Z " fill="#B4BABD" transform="translate(84,48)"/>
<path d="M0 0 C3.3 0 6.6 0 10 0 C10 2.64 10 5.28 10 8 C6.7 8 3.4 8 0 8 C0 5.36 0 2.72 0 0 Z " fill="#E0E5E8" transform="translate(73,48)"/>
<path d="M0 0 C3.3 0 6.6 0 10 0 C10 2.64 10 5.28 10 8 C6.7 8 3.4 8 0 8 C0 5.36 0 2.72 0 0 Z " fill="#B2B8BC" transform="translate(41,48)"/>
<path d="M0 0 C1.32 0 2.64 0 4 0 C4.33 1.65 4.66 3.3 5 5 C6.98 5 8.96 5 11 5 C11 5.66 11 6.32 11 7 C9.68 7 8.36 7 7 7 C7 8.32 7 9.64 7 11 C4.03 11 1.06 11 -2 11 C-1.86 9.35 -1.71 7.71 -1.56 6.06 C-1.48 5.15 -1.4 4.23 -1.32 3.29 C-1 1 -1 1 0 0 Z " fill="#ABC1C4" transform="translate(97,36)"/>
<path d="M0 0 C2.64 0 5.28 0 8 0 C8 3.3 8 6.6 8 10 C5.36 10 2.72 10 0 10 C0 6.7 0 3.4 0 0 Z " fill="#E0E5E7" transform="translate(0,37)"/>
<path d="M0 0 C2.97 0 5.94 0 9 0 C9.1 6.15 9.1 6.15 9 8 C8 9 8 9 6.15 9.1 C4.1 9.07 2.05 9.03 0 9 C0 6.03 0 3.06 0 0 Z " fill="#B4B9BD" transform="translate(63,5)"/>
<path d="M0 0 C2.64 0 5.28 0 8 0 C8 3.3 8 6.6 8 10 C5.36 10 2.72 10 0 10 C0 6.7 0 3.4 0 0 Z " fill="#B4BABD" transform="translate(0,5)"/>
<path d="M0 0 C2.97 0 5.94 0 9 0 C9 2.64 9 5.28 9 8 C6.03 8 3.06 8 0 8 C0 5.36 0 2.72 0 0 Z " fill="#B7BBBF" transform="translate(191,48)"/>
<path d="M0 0 C2.97 0 5.94 0 9 0 C9 2.64 9 5.28 9 8 C6.03 8 3.06 8 0 8 C0 5.36 0 2.72 0 0 Z " fill="#B3B8BB" transform="translate(127,48)"/>
<path d="M0 0 C2.97 0 5.94 0 9 0 C9 2.64 9 5.28 9 8 C6.03 8 3.06 8 0 8 C0 5.36 0 2.72 0 0 Z " fill="#B6BBBE" transform="translate(63,48)"/>
<path d="M0 0 C2.64 0 5.28 0 8 0 C8 2.97 8 5.94 8 9 C5.36 9 2.72 9 0 9 C0 6.03 0 3.06 0 0 Z " fill="#B3BBBE" transform="translate(63,27)"/>
<path d="M0 0 C0.33 0 0.66 0 1 0 C1 7.59 1 15.18 1 23 C-0.65 23 -2.3 23 -4 23 C-4 19.04 -4 15.08 -4 11 C-2.68 11 -1.36 11 0 11 C0 7.37 0 3.74 0 0 Z " fill="#BDC9BD" transform="translate(112,14)"/>
<path d="M0 0 C2.97 0 5.94 0 9 0 C9 3.3 9 6.6 9 10 C4.81 8.95 3.01 8.01 0 5 C-0.31 2.25 -0.31 2.25 0 0 Z " fill="#DFE4E6" transform="translate(191,16)"/>
<path d="M0 0 C2.97 0 5.94 0 9 0 C8.67 1.65 8.34 3.3 8 5 C7.01 5 6.02 5 5 5 C5 6.65 5 8.3 5 10 C4.01 10.33 3.02 10.66 2 11 C2 10.34 2 9.68 2 9 C1.01 8.67 0.02 8.34 -1 8 C-0.67 5.36 -0.34 2.72 0 0 Z " fill="#D6E4E7" transform="translate(95,5)"/>
<path d="M0 0 C3.3 0 6.6 0 10 0 C10 4 10 4 8.32 5.7 C7.6 6.21 6.87 6.72 6.12 7.25 C5.41 7.77 4.69 8.29 3.95 8.83 C2 10 2 10 0 10 C0 6.7 0 3.4 0 0 Z " fill="#D8E8EA" transform="translate(9,5)"/>
<path d="M0 0 C0.99 0 1.98 0 3 0 C2.62 1.94 2.62 1.94 2 4 C1.01 4.5 1.01 4.5 0 5 C-0.66 6.6 -1.25 8.23 -1.81 9.88 C-3.06 13.09 -3.74 14.76 -6.31 17.12 C-9.65 18.21 -12.52 18.2 -16 18 C-14 16 -14 16 -10.62 14.94 C-8.11 13.93 -7.18 13.29 -5.76 10.95 C-5.09 9.36 -4.45 7.77 -3.83 6.16 C-2.89 3.72 -1.86 1.86 0 0 Z " fill="#A0DCDC" transform="translate(52,20)"/>
<path d="M0 0 C1.65 -0.03 3.29 -0.05 4.94 -0.06 C5.85 -0.07 6.77 -0.09 7.71 -0.1 C10 0 10 0 11 1 C11 2.65 11 4.3 11 6 C7.37 6 3.74 6 0 6 C0 4.02 0 2.04 0 0 Z " fill="#D0D4D8" transform="translate(132,30)"/>
<path d="M0 0 C2.64 0 5.28 0 8 0 C8 2.64 8 5.28 8 8 C5.36 8 2.72 8 0 8 C0 5.36 0 2.72 0 0 Z " fill="#B5BABD" transform="translate(0,48)"/>
<path d="M0 0 C3 1 3 1 4 3 C7.03 3.66 7.03 3.66 10 4 C10 5.65 10 7.3 10 9 C6.7 9 3.4 9 0 9 C0 6.03 0 3.06 0 0 Z " fill="#DFE3E7" transform="translate(212,38)"/>
<path d="M0 0 C0.33 0.66 0.66 1.32 1 2 C1.99 2 2.98 2 4 2 C2.53 5.87 0.74 7.29 -3 9 C-5.68 9.52 -8.27 9.77 -11 10 C-9.83 6.49 -9.15 6.22 -6.06 4.44 C-3.69 3.06 -1.95 1.95 0 0 Z " fill="#A5DCDE" transform="translate(41,25)"/>
<path d="M0 0 C1.68 0.29 3.34 0.62 5 1 C5.05 2.44 5.09 3.87 5.12 5.31 C5.15 6.11 5.17 6.91 5.2 7.74 C5 10 5 10 3 13 C1.02 10.36 -0.96 7.72 -3 5 C-1 1 -1 1 0 0 Z " fill="#B0B5B9" transform="translate(217,25)"/>
<path d="M0 0 C1.65 0 3.3 0 5 0 C6.6 3.51 7.22 6.14 7 10 C4.69 10 2.38 10 0 10 C0 6.7 0 3.4 0 0 Z " fill="#DBE2DE" transform="translate(108,37)"/>
<path d="M0 0 C0 2.31 0 4.62 0 7 C-3.63 7 -7.26 7 -11 7 C-11 5.35 -11 3.7 -11 2 C-9.35 1.67 -7.71 1.33 -6.06 1 C-5.15 0.81 -4.23 0.63 -3.29 0.44 C-1 0 -1 0 0 0 Z " fill="#B5BBBE" transform="translate(169,40)"/>
<path d="M0 0 C0.66 0.33 1.32 0.66 2 1 C1.67 1.99 1.34 2.98 1 4 C3.02 3.9 5.04 3.8 7.05 3.71 C7.7 3.8 8.34 3.9 9 4 C9.99 5.48 9.99 5.48 11 7 C5.06 7 -0.88 7 -7 7 C-7 6.01 -7 5.02 -7 4 C-1.73 0.78 -1.73 0.78 0 0 Z " fill="#39B8B8" transform="translate(29,32)"/>
<path d="M0 0 C1.43 2.86 0.6 4.93 0 8 C-3.3 8 -6.6 8 -10 8 C-10 6.35 -10 4.7 -10 3 C-6.97 2.27 -6.97 2.27 -3.95 1.54 C-1.94 1.05 -1.94 1.05 0 0 Z " fill="#B8BFC2" transform="translate(147,39)"/>
<path d="M0 0 C7.75 -0.12 7.75 -0.12 10 1 C9.67 2.65 9.34 4.3 9 6 C6.03 6 3.06 6 0 6 C0 4.02 0 2.04 0 0 Z " fill="#C8CDD0" transform="translate(132,19)"/>
<path d="M0 0 C0.52 0.31 1.03 0.62 1.56 0.94 C4.67 2.29 7.65 2.61 11 3 C11 4.65 11 6.3 11 8 C7.7 8 4.4 8 1 8 C0.67 5.36 0.34 2.72 0 0 Z " fill="#BCC1C4" transform="translate(179,39)"/>
<path d="M0 0 C3.63 0 7.26 0 11 0 C11 1.65 11 3.3 11 5 C7.37 5 3.74 5 0 5 C0 3.35 0 1.7 0 0 Z " fill="#E2E6E9" transform="translate(126,42)"/>
<path d="M0 0 C0.33 0 0.66 0 1 0 C1 9.57 1 19.14 1 29 C-1.31 29.33 -3.62 29.66 -6 30 C-6.33 29.34 -6.66 28.68 -7 28 C-5.35 28 -3.7 28 -2 28 C-1.67 26.02 -1.34 24.04 -1 22 C-1.66 22 -2.32 22 -3 22 C-2 18 -2 18 -1.5 16.31 C-0.81 13.14 -0.65 9.99 -0.44 6.75 C-0.35 5.49 -0.27 4.22 -0.18 2.92 C-0.12 1.96 -0.06 0.99 0 0 Z " fill="#E1D2A3" transform="translate(121,13)"/>
<path d="M0 0 C2.47 0.49 2.47 0.49 5 1 C5 3.64 5 6.28 5 9 C7.31 9 9.62 9 12 9 C12 9.33 12 9.66 12 10 C8.04 10 4.08 10 0 10 C0 6.7 0 3.4 0 0 Z " fill="#9CCACC" transform="translate(78,15)"/>
<path d="M0 0 C2.47 0.49 2.47 0.49 5 1 C6.47 7.24 6.47 7.24 4.19 10.94 C2 13 2 13 0 13 C0 8.71 0 4.42 0 0 Z " fill="#B8BDC0" transform="translate(207,15)"/>
<path d="M0 0 C0.33 0 0.66 0 1 0 C1 2.97 1 5.94 1 9 C3.04 8.72 3.04 8.72 5.12 8.44 C8.96 8 12.21 8.13 16 9 C16 9.33 16 9.66 16 10 C14.02 10 12.04 10 10 10 C10 18.58 10 27.16 10 36 C9.67 36 9.34 36 9 36 C9 27.42 9 18.84 9 10 C6.03 10 3.06 10 0 10 C0 6.7 0 3.4 0 0 Z " fill="#9FCBCC" transform="translate(62,5)"/>
<path d="M0 0 C4 1 4 1 6 4 C5.97 6.74 5.45 9.28 5 12 C4.67 11.34 4.34 10.68 4 10 C2.68 10 1.36 10 0 10 C0 6.7 0 3.4 0 0 Z " fill="#BEC8CA" transform="translate(9,37)"/>
<path d="M0 0 C0.33 0 0.66 0 1 0 C1 2.97 1 5.94 1 9 C-1.97 9 -4.94 9 -8 9 C-8 7.68 -8 6.36 -8 5 C-5.36 4.34 -2.72 3.68 0 3 C0 2.01 0 1.02 0 0 Z " fill="#C4C5C3" transform="translate(124,38)"/>
<path d="M0 0 C1.45 0.03 1.45 0.03 2.94 0.06 C2.98 2.06 2.98 4.06 2.94 6.06 C1.94 7.06 1.94 7.06 -0.56 7.19 C-3.06 7.06 -3.06 7.06 -4.06 6.06 C-4.19 3.56 -4.19 3.56 -4.06 1.06 C-3.06 0.06 -3.06 0.06 0 0 Z " fill="#2BA3A1" transform="translate(105.0625,9.9375)"/>
<path d="M0 0 C3.3 0 6.6 0 10 0 C10 1.32 10 2.64 10 4 C8.36 4.22 8.36 4.22 6.69 4.44 C3.07 4.88 3.07 4.88 0 6 C0 4.02 0 2.04 0 0 Z " fill="#E2E6E8" transform="translate(212,16)"/>
<path d="M0 0 C1.32 0 2.64 0 4 0 C4 3.3 4 6.6 4 10 C2.68 10 1.36 10 0 10 C-0.19 8.52 -0.38 7.04 -0.56 5.56 C-0.67 4.74 -0.77 3.92 -0.88 3.07 C-0.92 2.38 -0.96 1.7 -1 1 C-0.67 0.67 -0.34 0.34 0 0 Z " fill="#E3E6DE" transform="translate(108,15)"/>
<path d="M0 0 C1.65 0 3.3 0 5 0 C5 3.63 5 7.26 5 11 C4.34 11 3.68 11 3 11 C3 12.65 3 14.3 3 16 C2.67 16 2.34 16 2 16 C1.94 15.18 1.88 14.36 1.82 13.52 C1.73 12.44 1.65 11.36 1.56 10.25 C1.48 9.18 1.4 8.12 1.32 7.02 C1.06 4.56 0.68 2.36 0 0 Z " fill="#A2C4C7" transform="translate(57,15)"/>
<path d="M0 0 C3.3 0 6.6 0 10 0 C10 1.32 10 2.64 10 4 C6.7 4.66 3.4 5.32 0 6 C0 4.02 0 2.04 0 0 Z " fill="#AAB3B5" transform="translate(180,16)"/>
<path d="M0 0 C3.63 0 7.26 0 11 0 C11 1.32 11 2.64 11 4 C7.37 4 3.74 4 0 4 C0 2.68 0 1.36 0 0 Z " fill="#DDE2E5" transform="translate(62,0)"/>
<path d="M0 0 C3.63 0 7.26 0 11 0 C11 1.32 11 2.64 11 4 C7.37 4 3.74 4 0 4 C0 2.68 0 1.36 0 0 Z " fill="#D8E1E4" transform="translate(19,0)"/>
<path d="M0 0 C2.97 0 5.94 0 9 0 C9.33 1.98 9.66 3.96 10 6 C6.7 5.34 3.4 4.68 0 4 C0 2.68 0 1.36 0 0 Z " fill="#B2B9BB" transform="translate(159,16)"/>
<path d="M0 0 C1.32 0 2.64 0 4 0 C4 3.3 4 6.6 4 10 C2.68 10 1.36 10 0 10 C0 6.7 0 3.4 0 0 Z " fill="#CBE9EB" transform="translate(97,26)"/>
<path d="M0 0 C1.07 0.1 2.15 0.21 3.25 0.31 C2.3 1.46 1.34 2.61 0.38 3.75 C-0.16 4.39 -0.69 5.03 -1.24 5.68 C-2.75 7.31 -2.75 7.31 -4.75 8.31 C-5.74 7.32 -6.73 6.33 -7.75 5.31 C-5.37 1.5 -4.62 0.38 0 0 Z " fill="#5B6064" transform="translate(218.75,19.6875)"/>
<path d="M0 0 C1.65 0 3.3 0 5 0 C5 2.64 5 5.28 5 8 C3.35 8 1.7 8 0 8 C0 5.36 0 2.72 0 0 Z " fill="#D7E8EA" transform="translate(84,16)"/>
<path d="M0 0 C3.3 0 6.6 0 10 0 C10 1.32 10 2.64 10 4 C6.7 4 3.4 4 0 4 C0 2.68 0 1.36 0 0 Z " fill="#B8BCBF" transform="translate(223,0)"/>
<path d="M0 0 C3.3 0 6.6 0 10 0 C10 1.32 10 2.64 10 4 C6.7 4 3.4 4 0 4 C0 2.68 0 1.36 0 0 Z " fill="#DEE3E6" transform="translate(212,0)"/>
<path d="M0 0 C3.3 0 6.6 0 10 0 C10 1.32 10 2.64 10 4 C6.7 4 3.4 4 0 4 C0 2.68 0 1.36 0 0 Z " fill="#B3B9BC" transform="translate(201,0)"/>
<path d="M0 0 C3.3 0 6.6 0 10 0 C10 1.32 10 2.64 10 4 C6.7 4 3.4 4 0 4 C0 2.68 0 1.36 0 0 Z " fill="#E2E6E9" transform="translate(191,0)"/>
<path d="M0 0 C3.3 0 6.6 0 10 0 C10 1.32 10 2.64 10 4 C6.7 4 3.4 4 0 4 C0 2.68 0 1.36 0 0 Z " fill="#B7BCBF" transform="translate(180,0)"/>
<path d="M0 0 C3.3 0 6.6 0 10 0 C10 1.32 10 2.64 10 4 C6.7 4 3.4 4 0 4 C0 2.68 0 1.36 0 0 Z " fill="#E0E6E7" transform="translate(169,0)"/>
<path d="M0 0 C3.3 0 6.6 0 10 0 C10 1.32 10 2.64 10 4 C6.7 4 3.4 4 0 4 C0 2.68 0 1.36 0 0 Z " fill="#B4BABD" transform="translate(159,0)"/>
<path d="M0 0 C3.3 0 6.6 0 10 0 C10 1.32 10 2.64 10 4 C6.7 4 3.4 4 0 4 C0 2.68 0 1.36 0 0 Z " fill="#E1E6E7" transform="translate(148,0)"/>
<path d="M0 0 C3.3 0 6.6 0 10 0 C10 1.32 10 2.64 10 4 C6.7 4 3.4 4 0 4 C0 2.68 0 1.36 0 0 Z " fill="#B8BDC0" transform="translate(137,0)"/>
<path d="M0 0 C3.3 0 6.6 0 10 0 C10 1.32 10 2.64 10 4 C6.7 4 3.4 4 0 4 C0 2.68 0 1.36 0 0 Z " fill="#DFE4E7" transform="translate(127,0)"/>
<path d="M0 0 C3.3 0 6.6 0 10 0 C10 1.32 10 2.64 10 4 C6.7 4 3.4 4 0 4 C0 2.68 0 1.36 0 0 Z " fill="#B1B7BB" transform="translate(116,0)"/>
<path d="M0 0 C3.3 0 6.6 0 10 0 C10 1.32 10 2.64 10 4 C6.7 4 3.4 4 0 4 C0 2.68 0 1.36 0 0 Z " fill="#DFE4E7" transform="translate(105,0)"/>
<path d="M0 0 C3.3 0 6.6 0 10 0 C10 1.32 10 2.64 10 4 C6.7 4 3.4 4 0 4 C0 2.68 0 1.36 0 0 Z " fill="#E0E5E9" transform="translate(84,0)"/>
<path d="M0 0 C3.3 0 6.6 0 10 0 C10 1.32 10 2.64 10 4 C6.7 4 3.4 4 0 4 C0 2.68 0 1.36 0 0 Z " fill="#B1B8BB" transform="translate(73,0)"/>
<path d="M0 0 C3.3 0 6.6 0 10 0 C10 1.32 10 2.64 10 4 C6.7 4 3.4 4 0 4 C0 2.68 0 1.36 0 0 Z " fill="#B9BEC1" transform="translate(52,0)"/>
<path d="M0 0 C3.3 0 6.6 0 10 0 C10 1.32 10 2.64 10 4 C6.7 4 3.4 4 0 4 C0 2.68 0 1.36 0 0 Z " fill="#B5B9BD" transform="translate(9,0)"/>
<path d="M0 0 C0 0.66 0 1.32 0 2 C-4.44 3.11 -8.77 3.12 -13.31 3.06 C-14.05 3.06 -14.79 3.05 -15.56 3.05 C-17.37 3.04 -19.19 3.02 -21 3 C-21 3.66 -21 4.32 -21 5 C-23.64 5 -26.28 5 -29 5 C-24 2.5 -20.23 1.75 -14.62 1.5 C-13.1 1.43 -11.57 1.36 -10.04 1.28 C-9.02 1.24 -9.02 1.24 -7.98 1.19 C-5.25 0.93 -2.75 0 0 0 Z " fill="#7FC7C8" transform="translate(47,45)"/>
<path d="M0 0 C2.97 0 5.94 0 9 0 C9 1.32 9 2.64 9 4 C6.03 4 3.06 4 0 4 C0 2.68 0 1.36 0 0 Z " fill="#B7BBBE" transform="translate(95,0)"/>
<path d="M0 0 C0 4.29 0 8.58 0 13 C-0.33 13 -0.66 13 -1 13 C-1 10.36 -1 7.72 -1 5 C-3.97 5 -6.94 5 -10 5 C-10 4.67 -10 4.34 -10 4 C-8.35 4 -6.7 4 -5 4 C-4.67 3.01 -4.34 2.02 -4 1 C-2 0 -2 0 0 0 Z " fill="#C1D8DA" transform="translate(52,43)"/>
<path d="M0 0 C0 3.96 0 7.92 0 12 C-0.99 12 -1.98 12 -3 12 C-3 8.37 -3 4.74 -3 1 C-1 0 -1 0 0 0 Z " fill="#C8CBC7" transform="translate(125,15)"/>
<path d="M0 0 C1.56 1.19 1.56 1.19 3 3 C2.94 5.56 2.94 5.56 2 8 C-0.06 9.31 -0.06 9.31 -2 10 C-2 8.68 -2 7.36 -2 6 C-2.66 6.66 -3.32 7.32 -4 8 C-3.67 6.68 -3.34 5.36 -3 4 C-2.34 4 -1.68 4 -1 4 C-0.67 2.68 -0.34 1.36 0 0 Z " fill="#31B5B3" transform="translate(55,20)"/>
<path d="M0 0 C2.64 0 5.28 0 8 0 C8 1.32 8 2.64 8 4 C5.36 4 2.72 4 0 4 C0 2.68 0 1.36 0 0 Z " fill="#E2E6E9" transform="translate(0,0)"/>
<path d="M0 0 C0.33 0.66 0.66 1.32 1 2 C0.67 2.99 0.34 3.98 0 5 C0.66 5.33 1.32 5.66 2 6 C0.19 8 0.19 8 -2 10 C-2.99 10 -3.98 10 -5 10 C-3.84 6.09 -2.64 3.13 0 0 Z " fill="#20ABAA" transform="translate(53,25)"/>
<path d="M0 0 C1.98 0.66 3.96 1.32 6 2 C6 3.32 6 4.64 6 6 C4.35 6 2.7 6 1 6 C0.45 3.92 0 2.16 0 0 Z " fill="#20ADAB" transform="translate(50,12)"/>
<path d="M0 0 C2.47 0.99 2.47 0.99 5 2 C5.37 7.42 5.37 7.42 3.5 10.38 C3 10.91 2.51 11.45 2 12 C1.88 10.93 1.75 9.86 1.62 8.75 C1.1 5.62 0.6 3.67 -1 1 C-0.67 0.67 -0.34 0.34 0 0 Z " fill="#979DA0" transform="translate(147,25)"/>
<path d="M0 0 C0 1.32 0 2.64 0 4 C-3.96 4 -7.92 4 -12 4 C-12 3.67 -12 3.34 -12 3 C-10.35 3 -8.7 3 -7 3 C-7 2.34 -7 1.68 -7 1 C-4.54 -0.23 -2.72 -0.07 0 0 Z " fill="#21AEAE" transform="translate(90,26)"/>
<path d="M0 0 C0.94 2.52 1.18 3.59 0.07 6.11 C-0.38 6.79 -0.84 7.48 -1.31 8.19 C-1.76 8.88 -2.21 9.58 -2.68 10.29 C-4 12 -4 12 -6 13 C-6.33 12.01 -6.66 11.02 -7 10 C-5.82 8.28 -5.82 8.28 -4.12 6.5 C-1.95 4.19 -1.03 3.08 0 0 Z " fill="#8FC4C6" transform="translate(58,32)"/>
<path d="M0 0 C0.99 0 1.98 0 3 0 C3 2.64 3 5.28 3 8 C1.35 8.33 -0.3 8.66 -2 9 C-1.34 6.03 -0.68 3.06 0 0 Z " fill="#A1AAAD" transform="translate(198,28)"/>
<path d="M0 0 C2.97 0 5.94 0 9 0 C9 0.99 9 1.98 9 3 C6.03 3 3.06 3 0 3 C0 2.01 0 1.02 0 0 Z " fill="#AEB8BB" transform="translate(31,0)"/>
<path d="M0 0 C0.33 0 0.66 0 1 0 C1.54 6.66 0.77 10.46 -3 16 C-4.22 12.35 -3.33 11.21 -1.77 7.85 C-0.71 5.29 -0.33 2.74 0 0 Z " fill="#20A2A3" transform="translate(58,23)"/>
<path d="M0 0 C0.33 0.66 0.66 1.32 1 2 C1.99 2 2.98 2 4 2 C2.63 5.16 2.01 5.99 -1 8 C-1.62 5.69 -1.62 5.69 -2 3 C-1.34 2.01 -0.68 1.02 0 0 Z " fill="#9DC8C7" transform="translate(41,25)"/>
<path d="M0 0 C1.65 0 3.3 0 5 0 C5 1.65 5 3.3 5 5 C3.35 5 1.7 5 0 5 C0 3.35 0 1.7 0 0 Z " fill="#B2C3C2" transform="translate(84,31)"/>
<path d="M0 0 C0.66 0 1.32 0 2 0 C2 3.3 2 6.6 2 10 C1.01 10 0.02 10 -1 10 C-0.67 6.7 -0.34 3.4 0 0 Z " fill="#D2E8EB" transform="translate(60,26)"/>
<path d="M0 0 C1.19 1.56 1.19 1.56 2 4 C0.62 7.75 0.62 7.75 -1 11 C-2.19 9.44 -2.19 9.44 -3 7 C-1.62 3.25 -1.62 3.25 0 0 Z " fill="#51AFAF" transform="translate(47,22)"/>
<path d="M0 0 C2.06 1.5 2.06 1.5 4 4 C4.06 6.82 3.56 9.2 3 12 C2.67 12 2.34 12 2 12 C0.86 7.73 0 4.44 0 0 Z " fill="#8CCACB" transform="translate(11,37)"/>
<path d="M0 0 C0.66 0.99 1.32 1.98 2 3 C-1.63 5.33 -4.77 5.16 -9 5 C-6.35 2.35 -3.44 1.4 0 0 Z " fill="#8EDDDE" transform="translate(45,33)"/>
<path d="M0 0 C0.66 0.66 1.32 1.32 2 2 C0.58 2.05 -0.83 2.09 -2.25 2.12 C-3.04 2.15 -3.83 2.17 -4.64 2.2 C-7.21 1.98 -8.79 1.29 -11 0 C-3.28 -1.34 -3.28 -1.34 0 0 Z " fill="#69C9CD" transform="translate(38,37)"/>
<path d="M0 0 C2.12 0.38 2.12 0.38 4 1 C4 1.66 4 2.32 4 3 C4.66 3 5.32 3 6 3 C6 4.32 6 5.64 6 7 C5.01 7 4.02 7 3 7 C3 5.35 3 3.7 3 2 C1.35 2 -0.3 2 -2 2 C-1.34 1.34 -0.68 0.68 0 0 Z " fill="#93C3C5" transform="translate(105,8)"/>
<path d="M0 0 C0 0.66 0 1.32 0 2 C-1.68 3.25 -1.68 3.25 -3.88 4.56 C-4.95 5.21 -4.95 5.21 -6.05 5.88 C-7.35 6.62 -8.66 7.33 -10 8 C-9.94 6.25 -9.94 6.25 -9 4 C-6.3 1.99 -3.45 0 0 0 Z " fill="#38B2B2" transform="translate(23,7)"/>
<path d="M0 0 C0.99 0 1.98 0 3 0 C2.34 3.3 1.68 6.6 1 10 C0.67 10 0.34 10 0 10 C-0.19 8.52 -0.38 7.04 -0.56 5.56 C-0.67 4.74 -0.77 3.92 -0.88 3.07 C-0.92 2.38 -0.96 1.7 -1 1 C-0.67 0.67 -0.34 0.34 0 0 Z " fill="#C7E6E5" transform="translate(108,15)"/>
<path d="M0 0 C0.33 0 0.66 0 1 0 C1.39 5.96 1.39 5.96 1 8 C-0.32 8.99 -1.64 9.98 -3 11 C-2.01 7.37 -1.02 3.74 0 0 Z " fill="#B3B9BC" transform="translate(175,27)"/>
<path d="M0 0 C1.32 0 2.64 0 4 0 C4 1.65 4 3.3 4 5 C2.68 5 1.36 5 0 5 C0 3.35 0 1.7 0 0 Z " fill="#D7EEF0" transform="translate(79,31)"/>
<path d="M0 0 C1.32 0 2.64 0 4 0 C4 1.65 4 3.3 4 5 C2.68 5 1.36 5 0 5 C0 3.35 0 1.7 0 0 Z " fill="#C1C6C8" transform="translate(133,31)"/>
<path d="M0 0 C1.32 0 2.64 0 4 0 C4 1.65 4 3.3 4 5 C2.68 4.67 1.36 4.34 0 4 C0 2.68 0 1.36 0 0 Z " fill="#0DA8A3" transform="translate(102,11)"/>
<path d="M0 0 C0.33 1.32 0.66 2.64 1 4 C4.3 4 7.6 4 11 4 C11 4.33 11 4.66 11 5 C7.7 5 4.4 5 1 5 C0.67 5.99 0.34 6.98 0 8 C-0.98 4.95 -0.98 3.05 0 0 Z " fill="#D2D8DB" transform="translate(51,0)"/>
<path d="M0 0 C2.97 0.5 2.97 0.5 6 1 C4.38 2.71 2.71 4.37 1 6 C0.34 6 -0.32 6 -1 6 C-0.67 4.02 -0.34 2.04 0 0 Z " fill="#42A9A8" transform="translate(49,18)"/>
<path d="M0 0 C1.98 0 3.96 0 6 0 C5.34 1.32 4.68 2.64 4 4 C4 3.34 4 2.68 4 2 C3.01 2 2.02 2 1 2 C0.67 2.99 0.34 3.98 0 5 C-0.33 4.34 -0.66 3.68 -1 3 C-0.67 2.01 -0.34 1.02 0 0 Z " fill="#8ED5D3" transform="translate(45,14)"/>
<path d="M0 0 C0.66 0.33 1.32 0.66 2 1 C1.67 1.99 1.34 2.98 1 4 C-0.98 4 -2.96 4 -5 4 C-3 1 -3 1 0 0 Z " fill="#6AC8CC" transform="translate(29,32)"/>
</svg>
